<?xml version="1.0"?>
<svg version="1.1" id="圖層_1" xmlns="http://www.w3.org/2000/svg" x="0" y="0" viewBox="0 0 100 100" xml:space="preserve"><path d="M86.467 83.865H13.533A3.533 3.533 0 0 1 10 80.332V25.064a3.533 3.533 0 0 1 3.533-3.533h72.934A3.533 3.533 0 0 1 90 25.064v55.268a3.533 3.533 0 0 1-3.533 3.533z" fill="#4a3827"/><path d="M42.808 16.484h-27.76v62.334h27.76c3.94.012 6.31-1.142 7.192 1.514V20.521c-1.497-2.951-3.955-4.189-7.192-4.037z" fill="#666"/><path d="M57.192 16.484h27.76v62.334h-27.76c-3.94.012-6.31-1.142-7.192 1.514V20.521c1.497-2.951 3.955-4.189 7.192-4.037z" fill="#666"/><path d="M42.808 14.465h-27.76v62.334h27.76c3.94.012 6.31.877 7.192 3.533v-61.83c-1.497-2.951-3.955-4.189-7.192-4.037z" fill="#b3b3b3"/><path d="M57.192 14.465h27.76v62.334h-27.76c-3.94.012-6.31.877-7.192 3.533v-61.83c1.497-2.951 3.955-4.189 7.192-4.037z" fill="#b3b3b3"/><path fill="#c33737" d="M29.285 68.05h-4.711v19.517l4.711-4.038 4.711 4.038V68.05z"/><path d="M42.808 12.446h-27.76V74.78h27.76c3.94.012 6.31 1.886 7.192 4.543V16.484c-1.497-2.952-3.955-4.19-7.192-4.038z" fill="#e0e0e0"/><path d="M57.192 12.446h27.76V74.78h-27.76c-3.94.012-6.31 1.886-7.192 4.543V16.484c1.497-2.952 3.955-4.19 7.192-4.038z" fill="#e0e0e0"/><path d="M76.354 38.932h-18.26a2.037 2.037 0 0 1-2.037-2.037V20.148c0-1.125.912-2.037 2.037-2.037h18.261c1.125 0 2.037.912 2.037 2.037v16.746a2.039 2.039 0 0 1-2.038 2.038z" fill="#333"/><g><path fill="none" stroke="#333" stroke-width="1.919" stroke-linecap="round" stroke-miterlimit="10" d="M57.129 44.448h20.19"/><path fill="none" stroke="#333" stroke-width="1.919" stroke-linecap="round" stroke-miterlimit="10" d="M57.129 50.252h20.19"/><path fill="none" stroke="#333" stroke-width="1.919" stroke-linecap="round" stroke-miterlimit="10" d="M57.129 56.057h20.19"/><path fill="none" stroke="#333" stroke-width="1.919" stroke-linecap="round" stroke-miterlimit="10" d="M57.129 61.861h20.19"/><path fill="none" stroke="#333" stroke-width="1.919" stroke-linecap="round" stroke-miterlimit="10" d="M57.129 67.666h20.19"/></g><g><path fill="none" stroke="#333" stroke-width="1.919" stroke-linecap="round" stroke-miterlimit="10" d="M42.87 44.448H22.682"/><path fill="none" stroke="#333" stroke-width="1.919" stroke-linecap="round" stroke-miterlimit="10" d="M42.87 50.252H22.682"/><path fill="none" stroke="#333" stroke-width="1.919" stroke-linecap="round" stroke-miterlimit="10" d="M42.87 56.057H22.682"/><path fill="none" stroke="#333" stroke-width="1.919" stroke-linecap="round" stroke-miterlimit="10" d="M42.87 61.861H22.682"/><path fill="none" stroke="#333" stroke-width="1.919" stroke-linecap="round" stroke-miterlimit="10" d="M42.87 67.666H22.682"/><path fill="none" stroke="#333" stroke-width="1.919" stroke-linecap="round" stroke-miterlimit="10" d="M42.87 21.356H22.681"/><path fill="none" stroke="#333" stroke-width="1.919" stroke-linecap="round" stroke-miterlimit="10" d="M42.87 27.161H22.681"/><path fill="none" stroke="#333" stroke-width="1.919" stroke-linecap="round" stroke-miterlimit="10" d="M42.87 32.965H22.681"/><path fill="none" stroke="#333" stroke-width="1.919" stroke-linecap="round" stroke-miterlimit="10" d="M42.87 38.77H22.681"/></g><metadata xmlns:d="https://loading.io/stock/"><d:name>book</d:name><d:tags>study,read,view,workbook,note,booklet,document,book,books</d:tags><d:license>pro</d:license><d:slug>d386pi</d:slug></metadata></svg>